<svg width="115" height="13" viewBox="0 0 115 13" fill="none" xmlns="http://www.w3.org/2000/svg">
<g clip-path="url(#clip0_2480_398)">
<path d="M0 12.74V0H1.83473V12.74H0Z" fill="white"/>
<path d="M6.99042 12.9912C6.33494 12.9912 5.78482 12.8872 5.34003 12.6792C4.89525 12.4712 4.5324 12.1997 4.25149 11.8645C3.97642 11.5237 3.76574 11.1539 3.61942 10.7552C3.47311 10.3565 3.37362 9.96655 3.32095 9.58522C3.26828 9.20388 3.24194 8.86874 3.24194 8.57988V3.37988H5.10301V7.98188C5.10301 8.34588 5.13227 8.72141 5.1908 9.10855C5.25517 9.48988 5.37223 9.84522 5.54194 10.1745C5.71752 10.5039 5.96039 10.7697 6.27057 10.9719C6.5866 11.1741 6.99627 11.2752 7.49958 11.2752C7.82731 11.2752 8.13749 11.2232 8.43011 11.1192C8.72273 11.0094 8.97731 10.8361 9.19388 10.5992C9.41624 10.3624 9.58892 10.0504 9.71182 9.66322C9.84051 9.27608 9.90495 8.80522 9.90495 8.25055L11.0462 8.67522C11.0462 9.52455 10.8852 10.2757 10.5633 10.9285C10.2414 11.5757 9.77906 12.0812 9.17632 12.4452C8.57349 12.8092 7.84487 12.9912 6.99042 12.9912ZM10.1244 12.7399V10.0359H9.90495V3.37988H11.7572V12.7399H10.1244Z" fill="white"/>
<path d="M17.2216 13.0001C16.2501 13.0001 15.4249 12.7863 14.746 12.3588C14.0671 11.9313 13.5463 11.3448 13.1834 10.5995C12.8264 9.85412 12.645 9.00764 12.6392 8.06012C12.645 7.09523 12.8323 6.243 13.201 5.50345C13.5697 4.75812 14.0964 4.17456 14.7811 3.75278C15.4659 3.331 16.2881 3.12012 17.2479 3.12012C18.2838 3.12012 19.1675 3.37434 19.8991 3.88278C20.6365 4.39123 21.1222 5.08745 21.3563 5.97145L19.5304 6.49145C19.3489 5.96567 19.0505 5.55834 18.635 5.26945C18.2253 4.97478 17.7541 4.82745 17.2216 4.82745C16.6188 4.82745 16.1243 4.969 15.738 5.25212C15.3518 5.52945 15.065 5.91078 14.8777 6.39612C14.6904 6.88145 14.5938 7.43612 14.588 8.06012C14.5938 9.02498 14.8163 9.80498 15.2552 10.4001C15.6999 10.9953 16.3554 11.2928 17.2216 11.2928C17.8127 11.2928 18.2896 11.1599 18.6525 10.8941C19.0212 10.6226 19.3021 10.2355 19.4953 9.73278L21.3563 10.1661C21.0461 11.079 20.534 11.781 19.8201 12.2721C19.106 12.7575 18.2399 13.0001 17.2216 13.0001Z" fill="white"/>
<path d="M24.6488 13.0001C23.9465 13.0001 23.3583 12.873 22.8843 12.6188C22.4102 12.3588 22.0503 12.0179 21.8045 11.5961C21.5646 11.1686 21.4446 10.7006 21.4446 10.1921C21.4446 9.71831 21.5295 9.30231 21.6992 8.94412C21.8689 8.5859 22.1205 8.28257 22.4541 8.03412C22.7877 7.7799 23.1974 7.57478 23.6831 7.41878C24.1045 7.29745 24.5815 7.19056 25.114 7.09812C25.6466 7.00567 26.2056 6.919 26.7908 6.83812C27.3819 6.75723 27.9671 6.67634 28.5465 6.59545L27.8793 6.95945C27.8911 6.22567 27.7331 5.68256 27.4053 5.33012C27.0834 4.9719 26.5274 4.79278 25.7373 4.79278C25.2399 4.79278 24.7834 4.90834 24.3679 5.13945C23.9524 5.36478 23.6627 5.74034 23.4988 6.26612L21.7869 5.74612C22.0211 4.943 22.4659 4.30456 23.1213 3.83078C23.7827 3.357 24.6605 3.12012 25.7549 3.12012C26.6035 3.12012 27.3409 3.26456 27.9671 3.55345C28.5992 3.83656 29.0615 4.28723 29.3541 4.90545C29.5063 5.21167 29.5999 5.53523 29.635 5.87612C29.6702 6.217 29.6877 6.5839 29.6877 6.97678V12.7401H28.0637V10.5995L28.3797 10.8768C27.9876 11.5933 27.4873 12.1276 26.8785 12.4801C26.2758 12.8268 25.5325 13.0001 24.6488 13.0001ZM24.9736 11.5181C25.4945 11.5181 25.9422 11.4286 26.3167 11.2495C26.6913 11.0646 26.9927 10.8306 27.2209 10.5475C27.4492 10.2643 27.5984 9.96964 27.6686 9.66345C27.7682 9.38612 27.8237 9.07412 27.8354 8.72745C27.853 8.38078 27.8618 8.10345 27.8618 7.89545L28.4587 8.11212C27.8793 8.19878 27.3526 8.27678 26.8785 8.34612C26.4045 8.41545 25.9744 8.48478 25.5881 8.55412C25.2077 8.61767 24.8682 8.69564 24.5698 8.78812C24.3182 8.87478 24.0928 8.97878 23.8938 9.10012C23.7007 9.22145 23.5457 9.36878 23.4285 9.54212C23.3174 9.71545 23.2618 9.92631 23.2618 10.1748C23.2618 10.4175 23.3232 10.6428 23.4461 10.8508C23.569 11.053 23.7563 11.2148 24.0079 11.3361C24.2596 11.4575 24.5815 11.5181 24.9736 11.5181Z" fill="white"/>
<path d="M34.5393 12.9915C33.3864 12.9915 32.447 12.7401 31.7213 12.2375C30.9957 11.7348 30.5509 11.027 30.387 10.1141L32.2656 9.82812C32.3827 10.3135 32.6518 10.6976 33.0732 10.9808C33.5005 11.2581 34.0301 11.3968 34.6622 11.3968C35.2357 11.3968 35.6835 11.2813 36.0053 11.0501C36.3331 10.819 36.4969 10.5013 36.4969 10.0968C36.4969 9.85992 36.4384 9.66926 36.3213 9.52478C36.2102 9.37459 35.9732 9.23298 35.6102 9.10012C35.2474 8.96726 34.6944 8.80259 33.9511 8.60612C33.1377 8.39812 32.4909 8.17567 32.011 7.93878C31.537 7.69612 31.1976 7.4159 30.9927 7.09812C30.7938 6.77456 30.6942 6.38456 30.6942 5.92812C30.6942 5.3619 30.8464 4.8679 31.1507 4.44612C31.4551 4.02434 31.8823 3.6979 32.4324 3.46678C32.9884 3.23567 33.638 3.12012 34.3812 3.12012C35.107 3.12012 35.7537 3.23278 36.3213 3.45812C36.889 3.68345 37.3484 4.00412 37.6996 4.42012C38.0507 4.83034 38.2614 5.31278 38.3316 5.86745L36.453 6.20545C36.3886 5.75478 36.1751 5.39945 35.8122 5.13945C35.4493 4.87945 34.9782 4.7379 34.3988 4.71478C33.8428 4.69167 33.3922 4.78412 33.0469 4.99212C32.7016 5.19434 32.5289 5.47456 32.5289 5.83278C32.5289 6.04078 32.5934 6.217 32.7221 6.36145C32.8567 6.5059 33.1142 6.64456 33.4946 6.77745C33.8751 6.91034 34.4369 7.06923 35.1801 7.25412C35.9761 7.45634 36.6081 7.68167 37.0763 7.93012C37.5445 8.17278 37.8781 8.46456 38.077 8.80545C38.2819 9.14059 38.3843 9.54792 38.3843 10.0275C38.3843 10.9519 38.0419 11.677 37.3572 12.2028C36.6783 12.7286 35.739 12.9915 34.5393 12.9915Z" fill="white"/>
<path d="M41.7349 12.7399V3.37993H43.3677V5.6506L43.1394 5.35593C43.2565 5.05548 43.4087 4.78104 43.5959 4.5326C43.7832 4.27838 43.9997 4.07038 44.2456 3.9086C44.4855 3.73526 44.7518 3.60238 45.0444 3.50993C45.3429 3.41171 45.6472 3.35393 45.9574 3.3366C46.2675 3.31348 46.566 3.32793 46.8528 3.37993V5.0786C46.5427 4.99771 46.1973 4.9746 45.8169 5.00926C45.4423 5.04393 45.0971 5.16238 44.781 5.3646C44.4826 5.55526 44.2456 5.78638 44.07 6.05793C43.9003 6.32948 43.7774 6.63281 43.7013 6.96793C43.6252 7.29726 43.5872 7.64681 43.5872 8.01659V12.7399H41.7349Z" fill="white"/>
<path d="M51.4168 13.0001C50.4688 13.0001 49.6465 12.7893 48.9501 12.3675C48.2536 11.9456 47.7152 11.365 47.3348 10.6255C46.9602 9.88012 46.7729 9.02212 46.7729 8.05145C46.7729 7.075 46.9661 6.217 47.3523 5.47745C47.7386 4.73212 48.2799 4.15434 48.9764 3.74412C49.6728 3.32812 50.4863 3.12012 51.4168 3.12012C52.3649 3.12012 53.1871 3.331 53.8836 3.75278C54.58 4.17456 55.1184 4.75523 55.4989 5.49478C55.8793 6.23434 56.0695 7.08656 56.0695 8.05145C56.0695 9.02792 55.8764 9.88878 55.4901 10.6341C55.1097 11.3736 54.5713 11.9543 53.8749 12.3761C53.1784 12.7921 52.3591 13.0001 51.4168 13.0001ZM51.4168 11.2928C52.3239 11.2928 52.9999 10.9923 53.4447 10.3915C53.8953 9.78478 54.1207 9.00478 54.1207 8.05145C54.1207 7.075 53.8924 6.295 53.4359 5.71145C52.9852 5.12212 52.3123 4.82745 51.4168 4.82745C50.8023 4.82745 50.2961 4.96612 49.8981 5.24345C49.5001 5.515 49.2046 5.89345 49.0115 6.37878C48.8184 6.85834 48.7218 7.4159 48.7218 8.05145C48.7218 9.03364 48.95 9.81945 49.4065 10.4088C49.863 10.9981 50.5331 11.2928 51.4168 11.2928Z" fill="white"/>
<path d="M60.3994 12.9915C59.2464 12.9915 58.3071 12.7401 57.5814 12.2375C56.8557 11.7348 56.4109 11.027 56.2471 10.1141L58.1257 9.82812C58.2427 10.3135 58.512 10.6976 58.9333 10.9808C59.3605 11.2581 59.8902 11.3968 60.5223 11.3968C61.0958 11.3968 61.5435 11.2813 61.8654 11.0501C62.1931 10.819 62.357 10.5013 62.357 10.0968C62.357 9.85992 62.2984 9.66926 62.1814 9.52478C62.0702 9.37459 61.8332 9.23298 61.4704 9.10012C61.1074 8.96726 60.5544 8.80259 59.8112 8.60612C58.9977 8.39812 58.351 8.17567 57.8711 7.93878C57.3971 7.69612 57.0576 7.4159 56.8528 7.09812C56.6538 6.77456 56.5543 6.38456 56.5543 5.92812C56.5543 5.3619 56.7065 4.8679 57.0108 4.44612C57.3151 4.02434 57.7423 3.6979 58.2925 3.46678C58.8484 3.23567 59.4981 3.12012 60.2413 3.12012C60.967 3.12012 61.6137 3.23278 62.1814 3.45812C62.7491 3.68345 63.2085 4.00412 63.5597 4.42012C63.9108 4.83034 64.1215 5.31278 64.1917 5.86745L62.3131 6.20545C62.2487 5.75478 62.0351 5.39945 61.6723 5.13945C61.3094 4.87945 60.8383 4.7379 60.2589 4.71478C59.7029 4.69167 59.2523 4.78412 58.907 4.99212C58.5616 5.19434 58.3891 5.47456 58.3891 5.83278C58.3891 6.04078 58.4534 6.217 58.5822 6.36145C58.7168 6.5059 58.9742 6.64456 59.3547 6.77745C59.7351 6.91034 60.2969 7.06923 61.0402 7.25412C61.8361 7.45634 62.4681 7.68167 62.9364 7.93012C63.4046 8.17278 63.7381 8.46456 63.9371 8.80545C64.142 9.14059 64.2444 9.54792 64.2444 10.0275C64.2444 10.9519 63.902 11.677 63.2173 12.2028C62.5384 12.7286 61.599 12.9915 60.3994 12.9915Z" fill="white"/>
<path d="M69.3381 13.0001C68.3959 13.0001 67.5677 12.7979 66.8538 12.3935C66.1456 11.9833 65.5925 11.4141 65.1946 10.6861C64.8025 9.95231 64.6064 9.10298 64.6064 8.13812C64.6064 7.11545 64.7996 6.22856 65.1858 5.47745C65.578 4.72634 66.1223 4.14567 66.8187 3.73545C67.5151 3.32523 68.3257 3.12012 69.2503 3.12012C70.216 3.12012 71.0383 3.34256 71.7171 3.78745C72.396 4.22656 72.9022 4.85345 73.2358 5.66812C73.5753 6.48278 73.7099 7.45057 73.6397 8.57145H71.8049V7.91278C71.7932 6.82657 71.5826 6.02345 71.1729 5.50345C70.769 4.98345 70.1516 4.72345 69.3206 4.72345C68.4017 4.72345 67.7112 5.00945 67.2488 5.58145C66.7864 6.15345 66.5553 6.97967 66.5553 8.06012C66.5553 9.08859 66.7864 9.88593 67.2488 10.4521C67.7112 11.0126 68.3784 11.2928 69.2503 11.2928C69.8238 11.2928 70.3184 11.1656 70.7339 10.9115C71.1553 10.6515 71.483 10.2816 71.7171 9.80212L73.5168 10.3655C73.148 11.2033 72.5891 11.8533 71.84 12.3155C71.091 12.7719 70.257 13.0001 69.3381 13.0001ZM65.9584 8.57145V7.15878H72.7267V8.57145H65.9584Z" fill="white"/>
<path d="M80.953 12.74V8.138C80.953 7.774 80.9209 7.40133 80.8565 7.02C80.798 6.63288 80.6809 6.27466 80.5053 5.94533C80.3356 5.616 80.0927 5.35021 79.7767 5.148C79.4665 4.94578 79.0598 4.84466 78.5565 4.84466C78.2287 4.84466 77.9186 4.89955 77.6259 5.00933C77.3333 5.11333 77.0758 5.28378 76.8534 5.52066C76.6369 5.75755 76.4642 6.06955 76.3355 6.45666C76.2126 6.84378 76.1511 7.31466 76.1511 7.86933L75.0099 7.44466C75.0099 6.59533 75.1709 5.84711 75.4927 5.2C75.8146 4.54711 76.277 4.03866 76.8797 3.67466C77.4826 3.31066 78.2112 3.12866 79.0656 3.12866C79.7211 3.12866 80.2713 3.23266 80.716 3.44066C81.1608 3.64866 81.5207 3.92311 81.7958 4.264C82.0767 4.59911 82.2904 4.966 82.4366 5.36466C82.5829 5.76333 82.6824 6.15333 82.7351 6.53466C82.7878 6.916 82.8141 7.25111 82.8141 7.54V12.74H80.953ZM74.29 12.74V3.38H75.9316V6.084H76.1511V12.74H74.29Z" fill="white"/>
<path d="M87.6931 13C86.8094 13 86.0457 12.7833 85.4019 12.35C84.764 11.9167 84.2695 11.3273 83.9183 10.582C83.5731 9.83087 83.4004 8.98734 83.4004 8.05134C83.4004 7.10956 83.576 6.2689 83.9271 5.52934C84.2783 4.78401 84.7757 4.19756 85.4195 3.77001C86.0691 3.33668 86.8387 3.12001 87.7283 3.12001C88.6238 3.12001 89.3761 3.33668 89.9844 3.77001C90.599 4.19756 91.0616 4.78401 91.3715 5.52934C91.6875 6.27468 91.8455 7.11534 91.8455 8.05134C91.8455 8.98734 91.6875 9.82801 91.3715 10.5733C91.0554 11.3187 90.5902 11.9109 89.9757 12.35C89.3612 12.7833 88.6001 13 87.6931 13ZM87.9478 11.362C88.5509 11.362 89.0425 11.2205 89.4226 10.9373C89.8027 10.6542 90.081 10.2642 90.2566 9.76734C90.4322 9.27048 90.5199 8.69848 90.5199 8.05134C90.5199 7.40423 90.4295 6.83223 90.2478 6.33534C90.0722 5.83846 89.7975 5.45134 89.4226 5.17401C89.0539 4.89668 88.5825 4.75801 88.0093 4.75801C87.4005 4.75801 86.9002 4.90534 86.508 5.20001C86.1159 5.49468 85.8233 5.89046 85.6302 6.38734C85.4429 6.88423 85.3492 7.4389 85.3492 8.05134C85.3492 8.66954 85.4429 9.23001 85.6302 9.73268C85.8233 10.2295 86.1101 10.6253 86.4905 10.92C86.8767 11.2147 87.3624 11.362 87.9478 11.362ZM90.5199 12.74V6.00601H90.3093V0.26001H92.1528V12.74H90.5199Z" fill="white"/>
<path d="M96.233 13.0001C95.5307 13.0001 94.9425 12.873 94.4685 12.6188C93.9945 12.3588 93.6345 12.0179 93.3887 11.5961C93.1491 11.1686 93.0288 10.7006 93.0288 10.1921C93.0288 9.71831 93.114 9.30231 93.2834 8.94412C93.4528 8.5859 93.7048 8.28257 94.0384 8.03412C94.3719 7.7799 94.7819 7.57478 95.2674 7.41878C95.6887 7.29745 96.1654 7.19056 96.6983 7.09812C97.2311 7.00567 97.7895 6.919 98.375 6.83812C98.9658 6.75723 99.5513 6.67634 100.131 6.59545L99.4635 6.95945C99.475 6.22567 99.3169 5.68256 98.9895 5.33012C98.6673 4.9719 98.1116 4.79278 97.3216 4.79278C96.8238 4.79278 96.3673 4.90834 95.9521 5.13945C95.5369 5.36478 95.2472 5.74034 95.083 6.26612L93.3712 5.74612C93.6056 4.943 94.0498 4.30456 94.7055 3.83078C95.3666 3.357 96.2444 3.12012 97.3391 3.12012C98.188 3.12012 98.9254 3.26456 99.5513 3.55345C100.183 3.83656 100.646 4.28723 100.938 4.90545C101.09 5.21167 101.184 5.53523 101.219 5.87612C101.254 6.217 101.272 6.5839 101.272 6.97678V12.7401H99.6479V10.5995L99.9639 10.8768C99.5715 11.5933 99.0711 12.1276 98.4628 12.4801C97.8597 12.8268 97.117 13.0001 96.233 13.0001ZM96.5578 11.5181C97.0784 11.5181 97.5261 11.4286 97.9009 11.2495C98.2758 11.0646 98.5769 10.8306 98.8051 10.5475C99.0334 10.2643 99.1826 9.96964 99.2529 9.66345C99.352 9.38612 99.4082 9.07412 99.4196 8.72745C99.4372 8.38078 99.446 8.10345 99.446 7.89545L100.043 8.11212C99.4635 8.19878 98.9368 8.27678 98.4628 8.34612C97.9887 8.41545 97.5586 8.48478 97.1723 8.55412C96.7922 8.61767 96.4525 8.69564 96.154 8.78812C95.9021 8.87478 95.6773 8.97878 95.478 9.10012C95.2849 9.22145 95.1295 9.36878 95.0128 9.54212C94.9013 9.71545 94.846 9.92631 94.846 10.1748C94.846 10.4175 94.9074 10.6428 95.0303 10.8508C95.1532 11.053 95.3402 11.2148 95.5922 11.3361C95.8441 11.4575 96.1654 11.5181 96.5578 11.5181Z" fill="white"/>
<path d="M109.152 12.74V8.13801C109.152 7.77401 109.12 7.40134 109.056 7.02001C108.997 6.6329 108.88 6.27468 108.705 5.94534C108.534 5.61601 108.292 5.35023 107.976 5.14801C107.665 4.94579 107.259 4.84468 106.756 4.84468C106.428 4.84468 106.118 4.89956 105.825 5.00934C105.532 5.11334 105.275 5.28379 105.053 5.52068C104.836 5.75756 104.663 6.06956 104.535 6.45668C104.412 6.84379 104.351 7.31468 104.351 7.86934L103.209 7.44468C103.209 6.59534 103.37 5.84712 103.692 5.20001C104.013 4.54712 104.476 4.03868 105.079 3.67468C105.681 3.31068 106.41 3.12868 107.265 3.12868C107.92 3.12868 108.47 3.23268 108.915 3.44068C109.36 3.64868 109.72 3.92312 109.995 4.26401C110.276 4.59912 110.489 4.96601 110.636 5.36468C110.782 5.76334 110.882 6.15334 110.935 6.53468C110.987 6.91601 111.014 7.25112 111.014 7.54001V12.74H109.152ZM102.49 12.74V0.26001H104.131V6.99401H104.351V12.74H102.49Z" fill="white"/>
<path d="M112.422 12.74V0H114.256V12.74H112.422Z" fill="white"/>
</g>
<defs>
<clipPath id="clip0_2480_398">
<rect width="115" height="13" fill="white"/>
</clipPath>
</defs>
</svg>
