<svg width="300" height="34" viewBox="0 0 300 34" fill="none" xmlns="http://www.w3.org/2000/svg">
<path d="M0 33.32V0H4.78626V33.32H0Z" fill="white"/>
<path d="M18.2358 33.9774C16.5258 33.9774 15.0907 33.7054 13.9304 33.1614C12.7701 32.6174 11.8236 31.9073 11.0907 31.0308C10.3732 30.1393 9.82357 29.1721 9.44189 28.1294C9.0602 27.0868 8.80066 26.0668 8.66326 25.0694C8.52586 24.0721 8.45715 23.1956 8.45715 22.4401V8.84009H13.3121V20.8761C13.3121 21.8281 13.3884 22.8102 13.5411 23.8228C13.7091 24.8201 14.0144 25.7494 14.4572 26.6108C14.9152 27.4721 15.5488 28.1673 16.3579 28.6961C17.1823 29.2249 18.2511 29.4894 19.564 29.4894C20.419 29.4894 21.2282 29.3534 21.9915 29.0814C22.7549 28.7942 23.419 28.3409 23.9839 27.7214C24.564 27.1019 25.0145 26.2859 25.3351 25.2734C25.6708 24.2609 25.8389 23.0294 25.8389 21.5788L28.816 22.6894C28.816 24.9108 28.396 26.8753 27.5565 28.5828C26.7167 30.2753 25.5105 31.5974 23.9381 32.5494C22.3655 33.5014 20.4648 33.9774 18.2358 33.9774ZM26.4114 33.3201V26.2481H25.8389V8.84009H30.671V33.3201H26.4114Z" fill="white"/>
<path d="M44.926 33.9999C42.3916 33.9999 40.2389 33.4407 38.468 32.3226C36.6968 31.2044 35.3381 29.6706 34.3916 27.7212C33.4603 25.7719 32.9869 23.5581 32.9718 21.0799C32.9869 18.5564 33.4756 16.3275 34.4374 14.3932C35.3993 12.4439 36.7733 10.9177 38.5596 9.81458C40.3458 8.71146 42.4907 8.15991 44.9947 8.15991C47.697 8.15991 50.0022 8.82479 51.9107 10.1546C53.8344 11.4844 55.1015 13.3052 55.7123 15.6172L50.9489 16.9772C50.4755 15.6021 49.6969 14.5368 48.613 13.7812C47.5442 13.0106 46.3152 12.6252 44.926 12.6252C43.3534 12.6252 42.0634 12.9955 41.0558 13.7359C40.0481 14.4612 39.3 15.4586 38.8115 16.7279C38.3228 17.9972 38.0709 19.4479 38.0558 21.0799C38.0709 23.6034 38.6512 25.6434 39.7962 27.1999C40.9564 28.7564 42.6664 29.5346 44.926 29.5346C46.4679 29.5346 47.7121 29.1871 48.6588 28.4919C49.6207 27.7818 50.3535 26.7692 50.8573 25.4546L55.7123 26.5879C54.9029 28.9754 53.5671 30.8114 51.7046 32.0959C49.8419 33.3652 47.5825 33.9999 44.926 33.9999Z" fill="white"/>
<path d="M64.301 33.9999C62.4689 33.9999 60.9346 33.6674 59.6979 33.0026C58.4613 32.3226 57.5224 31.4311 56.8811 30.3279C56.2553 29.2098 55.9422 27.9858 55.9422 26.6559C55.9422 25.4167 56.1636 24.3287 56.6063 23.3919C57.0492 22.455 57.7056 21.6617 58.5758 21.0119C59.446 20.347 60.5148 19.8106 61.7819 19.4026C62.8811 19.0852 64.1256 18.8057 65.5147 18.5639C66.9041 18.3221 68.3622 18.0955 69.8888 17.8839C71.4309 17.6724 72.9575 17.4608 74.4689 17.2492L72.7285 18.2012C72.7591 16.2821 72.3469 14.8617 71.4918 13.9399C70.6523 13.003 69.2017 12.5346 67.1407 12.5346C65.8431 12.5346 64.6523 12.8368 63.5682 13.4412C62.4843 14.0306 61.7285 15.0128 61.301 16.3879L56.8353 15.0279C57.4461 12.9275 58.6065 11.2577 60.3162 10.0186C62.0416 8.77946 64.3317 8.15991 67.1865 8.15991C69.4003 8.15991 71.324 8.5377 72.9575 9.29325C74.6063 10.0337 75.8125 11.2124 76.5758 12.8292C76.9729 13.6301 77.217 14.4764 77.3086 15.3679C77.4002 16.2595 77.446 17.219 77.446 18.2466V33.3199H73.2094V27.7212L74.0338 28.4466C73.011 30.3204 71.7057 31.7181 70.1178 32.6399C68.5454 33.5466 66.6064 33.9999 64.301 33.9999ZM65.1483 30.1239C66.5072 30.1239 67.6752 29.8898 68.6521 29.4212C69.6293 28.9378 70.4155 28.3258 71.0109 27.5852C71.6063 26.8447 71.9956 26.0741 72.1788 25.2732C72.4385 24.5479 72.5835 23.7319 72.614 22.8252C72.6598 21.9186 72.6827 21.1932 72.6827 20.6492L74.2399 21.2159C72.7285 21.4426 71.3544 21.6466 70.1178 21.8279C68.8811 22.0092 67.759 22.1906 66.7514 22.3719C65.7591 22.5381 64.8735 22.7421 64.0949 22.9839C63.4385 23.2106 62.8507 23.4826 62.3315 23.7999C61.8277 24.1172 61.4233 24.5026 61.1178 24.9559C60.8278 25.4092 60.6827 25.9607 60.6827 26.6106C60.6827 27.2452 60.843 27.8346 61.1636 28.3786C61.4842 28.9074 61.9729 29.3306 62.6292 29.6479C63.2858 29.9652 64.1256 30.1239 65.1483 30.1239Z" fill="white"/>
<path d="M90.1026 33.9772C87.095 33.9772 84.6446 33.3199 82.7514 32.0052C80.8584 30.6906 79.6981 28.8394 79.2705 26.4519L84.1713 25.7039C84.4768 26.9732 85.1789 27.9781 86.2781 28.7186C87.3927 29.4439 88.7743 29.8066 90.4232 29.8066C91.9195 29.8066 93.0875 29.5044 93.927 28.8999C94.7821 28.2954 95.2094 27.4644 95.2094 26.4066C95.2094 25.7871 95.0569 25.2884 94.7514 24.9106C94.4615 24.5178 93.8432 24.1474 92.8965 23.7999C91.95 23.4524 90.5072 23.0218 88.5682 22.5079C86.4462 21.9639 84.7591 21.3821 83.5072 20.7626C82.2705 20.1279 81.3852 19.395 80.8507 18.5639C80.3317 17.7177 80.072 16.6977 80.072 15.5039C80.072 14.023 80.4691 12.731 81.2629 11.6279C82.0568 10.5248 83.1714 9.67103 84.6064 9.06658C86.0569 8.46213 87.7516 8.15991 89.6904 8.15991C91.5836 8.15991 93.2707 8.45458 94.7514 9.04391C96.2324 9.63325 97.4308 10.4719 98.3468 11.5599C99.2629 12.6328 99.8125 13.8946 99.9957 15.3452L95.0949 16.2292C94.9271 15.0506 94.3699 14.1212 93.4232 13.4412C92.4767 12.7612 91.2476 12.391 89.7362 12.3306C88.2859 12.2701 87.1104 12.5119 86.2094 13.0559C85.3087 13.5848 84.8583 14.3177 84.8583 15.2546C84.8583 15.7986 85.0264 16.2595 85.3621 16.6372C85.7134 17.015 86.3851 17.3777 87.3774 17.7252C88.3699 18.0728 89.8355 18.4884 91.7743 18.9719C93.8507 19.5008 95.4996 20.0901 96.7209 20.7399C97.9424 21.3746 98.8127 22.1377 99.3316 23.0292C99.8661 23.9058 100.133 24.9711 100.133 26.2252C100.133 28.6431 99.24 30.5394 97.4537 31.9146C95.6828 33.2898 93.2324 33.9772 90.1026 33.9772Z" fill="white"/>
<path d="M108.873 33.32V8.83996H113.133V14.7786L112.538 14.008C112.843 13.2222 113.24 12.5044 113.728 11.8546C114.217 11.1897 114.782 10.6458 115.423 10.2226C116.049 9.7693 116.744 9.42175 117.507 9.17997C118.286 8.92308 119.08 8.77196 119.889 8.72663C120.698 8.66618 121.476 8.70396 122.225 8.83996V13.2826C121.415 13.0711 120.515 13.0106 119.522 13.1013C118.545 13.192 117.644 13.5017 116.82 14.0306C116.041 14.5293 115.423 15.1337 114.965 15.844C114.522 16.5542 114.202 17.3475 114.003 18.224C113.805 19.0853 113.705 19.9995 113.705 20.9666V33.32H108.873Z" fill="white"/>
<path d="M134.131 33.9999C131.658 33.9999 129.513 33.4484 127.696 32.3452C125.879 31.2421 124.474 29.7234 123.482 27.7892C122.505 25.8399 122.016 23.5959 122.016 21.0572C122.016 18.5035 122.52 16.2595 123.528 14.3252C124.536 12.3759 125.948 10.8648 127.765 9.79191C129.581 8.70391 131.703 8.15991 134.131 8.15991C136.604 8.15991 138.749 8.71146 140.566 9.81458C142.383 10.9177 143.787 12.4364 144.78 14.3706C145.772 16.3048 146.268 18.5337 146.268 21.0572C146.268 23.6111 145.765 25.8626 144.757 27.8119C143.764 29.7461 142.36 31.2647 140.543 32.3679C138.726 33.4559 136.589 33.9999 134.131 33.9999ZM134.131 29.5346C136.497 29.5346 138.261 28.7487 139.421 27.1772C140.597 25.5906 141.184 23.5506 141.184 21.0572C141.184 18.5035 140.589 16.4635 139.398 14.9372C138.222 13.3959 136.467 12.6252 134.131 12.6252C132.528 12.6252 131.207 12.9879 130.169 13.7132C129.131 14.4235 128.36 15.4132 127.856 16.6826C127.352 17.9368 127.1 19.395 127.1 21.0572C127.1 23.6261 127.696 25.6812 128.887 27.2226C130.077 28.7639 131.826 29.5346 134.131 29.5346Z" fill="white"/>
<path d="M157.563 33.9772C154.556 33.9772 152.105 33.3199 150.212 32.0052C148.319 30.6906 147.159 28.8394 146.731 26.4519L151.632 25.7039C151.937 26.9732 152.64 27.9781 153.739 28.7186C154.853 29.4439 156.235 29.8066 157.884 29.8066C159.38 29.8066 160.548 29.5044 161.388 28.8999C162.243 28.2954 162.67 27.4644 162.67 26.4066C162.67 25.7871 162.518 25.2884 162.212 24.9106C161.922 24.5178 161.304 24.1474 160.357 23.7999C159.411 23.4524 157.968 23.0218 156.029 22.5079C153.907 21.9639 152.22 21.3821 150.968 20.7626C149.731 20.1279 148.846 19.395 148.312 18.5639C147.792 17.7177 147.533 16.6977 147.533 15.5039C147.533 14.023 147.93 12.731 148.724 11.6279C149.517 10.5248 150.632 9.67103 152.067 9.06658C153.518 8.46213 155.212 8.15991 157.151 8.15991C159.044 8.15991 160.731 8.45458 162.212 9.04391C163.693 9.63325 164.892 10.4719 165.808 11.5599C166.724 12.6328 167.273 13.8946 167.457 15.3452L162.556 16.2292C162.388 15.0506 161.831 14.1212 160.884 13.4412C159.937 12.7612 158.708 12.391 157.197 12.3306C155.746 12.2701 154.571 12.5119 153.67 13.0559C152.769 13.5848 152.319 14.3177 152.319 15.2546C152.319 15.7986 152.487 16.2595 152.823 16.6372C153.174 17.015 153.846 17.3777 154.838 17.7252C155.831 18.0728 157.296 18.4884 159.235 18.9719C161.311 19.5008 162.96 20.0901 164.182 20.7399C165.403 21.3746 166.273 22.1377 166.792 23.0292C167.327 23.9058 167.594 24.9711 167.594 26.2252C167.594 28.6431 166.701 30.5394 164.915 31.9146C163.143 33.2898 160.693 33.9772 157.563 33.9772Z" fill="white"/>
<path d="M180.882 33.9999C178.424 33.9999 176.264 33.4711 174.401 32.4132C172.554 31.3404 171.111 29.8519 170.073 27.9479C169.05 26.0287 168.539 23.8074 168.539 21.2839C168.539 18.6092 169.043 16.2897 170.05 14.3252C171.073 12.3608 172.493 10.8421 174.31 9.76925C176.127 8.69636 178.241 8.15991 180.653 8.15991C183.172 8.15991 185.318 8.7417 187.088 9.90525C188.859 11.0537 190.18 12.6932 191.05 14.8239C191.936 16.9546 192.287 19.4857 192.104 22.4172H187.317V20.6946C187.287 17.8537 186.737 15.7532 185.669 14.3932C184.615 13.0332 183.005 12.3532 180.837 12.3532C178.44 12.3532 176.638 13.1012 175.432 14.5972C174.226 16.0932 173.623 18.2541 173.623 21.0799C173.623 23.7698 174.226 25.8551 175.432 27.3359C176.638 28.8018 178.379 29.5346 180.653 29.5346C182.149 29.5346 183.44 29.2021 184.524 28.5372C185.623 27.8572 186.478 26.8901 187.088 25.6359L191.783 27.1092C190.821 29.3004 189.363 31.0004 187.409 32.2092C185.455 33.4031 183.279 33.9999 180.882 33.9999ZM172.066 22.4172V18.7226H189.722V22.4172H172.066Z" fill="white"/>
<path d="M211.181 33.32V21.284C211.181 20.332 211.098 19.3573 210.93 18.36C210.777 17.3475 210.472 16.4106 210.014 15.5493C209.571 14.688 208.937 13.9928 208.113 13.464C207.304 12.9351 206.243 12.6706 204.93 12.6706C204.075 12.6706 203.266 12.8142 202.502 13.1013C201.739 13.3733 201.067 13.8191 200.487 14.4386C199.922 15.0582 199.472 15.8742 199.136 16.8866C198.815 17.8991 198.655 19.1306 198.655 20.5813L195.678 19.4706C195.678 17.2493 196.098 15.2924 196.937 13.6C197.777 11.8924 198.983 10.5626 200.556 9.61062C202.128 8.65862 204.029 8.18262 206.258 8.18262C207.968 8.18262 209.403 8.45462 210.563 8.99862C211.724 9.54262 212.662 10.2604 213.38 11.152C214.113 12.0284 214.67 12.988 215.052 14.0306C215.433 15.0733 215.693 16.0933 215.83 17.0906C215.968 18.088 216.036 18.9644 216.036 19.72V33.32H211.181ZM193.8 33.32V8.83995H198.082V15.912H198.655V33.32H193.8Z" fill="white"/>
<path d="M228.765 33.9999C226.459 33.9999 224.467 33.4333 222.788 32.2999C221.123 31.1666 219.833 29.6253 218.917 27.6759C218.017 25.7114 217.566 23.5053 217.566 21.0573C217.566 18.5941 218.024 16.3955 218.94 14.4613C219.856 12.5119 221.154 10.9781 222.833 9.85993C224.528 8.7266 226.536 8.15993 228.856 8.15993C231.192 8.15993 233.155 8.7266 234.742 9.85993C236.345 10.9781 237.552 12.5119 238.36 14.4613C239.185 16.4106 239.597 18.6093 239.597 21.0573C239.597 23.5053 239.185 25.7039 238.36 27.6533C237.536 29.6026 236.322 31.1514 234.719 32.2999C233.116 33.4333 231.131 33.9999 228.765 33.9999ZM229.429 29.7159C231.002 29.7159 232.285 29.3458 233.276 28.6053C234.268 27.8647 234.994 26.8447 235.452 25.5453C235.91 24.2458 236.139 22.7498 236.139 21.0573C236.139 19.3648 235.903 17.8688 235.429 16.5693C234.971 15.2697 234.254 14.2573 233.276 13.5319C232.314 12.8066 231.085 12.4439 229.589 12.4439C228.001 12.4439 226.696 12.8293 225.673 13.5999C224.65 14.3706 223.887 15.4057 223.383 16.7053C222.894 18.0048 222.65 19.4555 222.65 21.0573C222.65 22.6741 222.894 24.1399 223.383 25.4546C223.887 26.7541 224.635 27.7893 225.627 28.5599C226.635 29.3306 227.902 29.7159 229.429 29.7159ZM236.139 33.3199V15.7079H235.589V0.679932H240.398V33.3199H236.139Z" fill="white"/>
<path d="M251.043 33.9999C249.211 33.9999 247.676 33.6674 246.44 33.0026C245.203 32.3226 244.264 31.4311 243.623 30.3279C242.998 29.2098 242.684 27.9858 242.684 26.6559C242.684 25.4167 242.906 24.3287 243.348 23.3919C243.79 22.455 244.447 21.6617 245.318 21.0119C246.188 20.347 247.257 19.8106 248.524 19.4026C249.623 19.0852 250.866 18.8057 252.256 18.5639C253.647 18.3221 255.103 18.0955 256.631 17.8839C258.172 17.6724 259.699 17.4608 261.211 17.2492L259.47 18.2012C259.5 16.2821 259.088 14.8617 258.234 13.9399C257.393 13.003 255.943 12.5346 253.882 12.5346C252.584 12.5346 251.393 12.8368 250.31 13.4412C249.227 14.0306 248.471 15.0128 248.043 16.3879L243.577 15.0279C244.189 12.9275 245.347 11.2577 247.058 10.0186C248.782 8.77946 251.073 8.15991 253.928 8.15991C256.143 8.15991 258.066 8.5377 259.699 9.29325C261.348 10.0337 262.555 11.2124 263.318 12.8292C263.714 13.6301 263.959 14.4764 264.05 15.3679C264.142 16.2595 264.188 17.219 264.188 18.2466V33.3199H259.951V27.7212L260.776 28.4466C259.752 30.3204 258.447 31.7181 256.86 32.6399C255.286 33.5466 253.349 33.9999 251.043 33.9999ZM251.89 30.1239C253.248 30.1239 254.416 29.8898 255.394 29.4212C256.372 28.9378 257.157 28.3258 257.753 27.5852C258.348 26.8447 258.737 26.0741 258.921 25.2732C259.179 24.5479 259.326 23.7319 259.356 22.8252C259.402 21.9186 259.424 21.1932 259.424 20.6492L260.982 21.2159C259.47 21.4426 258.096 21.6466 256.86 21.8279C255.623 22.0092 254.501 22.1906 253.493 22.3719C252.502 22.5381 251.615 22.7421 250.837 22.9839C250.179 23.2106 249.593 23.4826 249.073 23.7999C248.569 24.1172 248.164 24.5026 247.86 24.9559C247.569 25.4092 247.424 25.9607 247.424 26.6106C247.424 27.2452 247.585 27.8346 247.905 28.3786C248.226 28.9074 248.714 29.3306 249.371 29.6479C250.028 29.9652 250.866 30.1239 251.89 30.1239Z" fill="white"/>
<path d="M284.746 33.3199V21.2839C284.746 20.3319 284.661 19.3573 284.494 18.3599C284.34 17.3475 284.036 16.4106 283.578 15.5493C283.134 14.6879 282.502 13.9928 281.677 13.4639C280.866 12.9351 279.806 12.6706 278.494 12.6706C277.637 12.6706 276.829 12.8141 276.066 13.1013C275.302 13.3733 274.631 13.819 274.051 14.4386C273.486 15.0581 273.034 15.8741 272.7 16.8866C272.379 17.899 272.219 19.1306 272.219 20.5813L269.242 19.4706C269.242 17.2493 269.661 15.2924 270.502 13.5999C271.34 11.8924 272.547 10.5626 274.12 9.6106C275.691 8.6586 277.592 8.1826 279.822 8.1826C281.531 8.1826 282.966 8.4546 284.127 8.9986C285.286 9.5426 286.225 10.2604 286.944 11.1519C287.677 12.0284 288.234 12.9879 288.616 14.0306C288.996 15.0733 289.257 16.0933 289.395 17.0906C289.532 18.0879 289.601 18.9644 289.601 19.7199V33.3199H284.746ZM267.364 33.3199V0.679932H271.647V18.2919H272.219V33.3199H267.364Z" fill="white"/>
<path d="M293.274 33.32V0H298.06V33.32H293.274Z" fill="white"/>
</svg>
