<svg width="140" height="16" viewBox="0 0 140 16" fill="none" xmlns="http://www.w3.org/2000/svg">
<g clip-path="url(#clip0_10_2115)">
<path d="M0 15.68V0H2.23359V15.68H0Z" fill="black"/>
<path d="M8.51001 15.9893C7.71205 15.9893 7.04233 15.8613 6.50085 15.6053C5.95937 15.3493 5.51765 15.0152 5.17566 14.6027C4.84081 14.1831 4.58432 13.728 4.4062 13.2373C4.22808 12.7467 4.10696 12.2667 4.04284 11.7973C3.97872 11.328 3.94666 10.9155 3.94666 10.56V4.16H6.2123V9.824C6.2123 10.272 6.24792 10.7342 6.31917 11.2107C6.39754 11.68 6.54004 12.1173 6.74666 12.5227C6.9604 12.928 7.25607 13.2552 7.63368 13.504C8.01841 13.7529 8.51714 13.8773 9.12986 13.8773C9.52884 13.8773 9.90646 13.8133 10.2627 13.6853C10.6189 13.5502 10.9288 13.3369 11.1925 13.0453C11.4632 12.7538 11.6734 12.3698 11.823 11.8933C11.9797 11.4169 12.0581 10.8373 12.0581 10.1547L13.4475 10.6773C13.4475 11.7227 13.2515 12.6472 12.8597 13.4507C12.4678 14.2471 11.9049 14.8693 11.1711 15.3173C10.4372 15.7653 9.55021 15.9893 8.51001 15.9893ZM12.3253 15.68V12.352H12.0581V4.16H14.3131V15.68H12.3253Z" fill="black"/>
<path d="M20.9655 16C19.7827 16 18.7782 15.7368 17.9517 15.2107C17.1252 14.6845 16.4911 13.9627 16.0494 13.0453C15.6148 12.128 15.3939 11.0862 15.3868 9.92C15.3939 8.73244 15.622 7.68355 16.0708 6.77333C16.5197 5.856 17.1609 5.13778 17.9945 4.61866C18.8281 4.09955 19.829 3.84 20.9975 3.84C22.2586 3.84 23.3344 4.15288 24.225 4.77866C25.1227 5.40444 25.714 6.26133 25.9991 7.34933L23.7762 7.98933C23.5553 7.34222 23.1919 6.84088 22.6861 6.48533C22.1873 6.12266 21.6137 5.94133 20.9655 5.94133C20.2316 5.94133 19.6296 6.11555 19.1594 6.464C18.6891 6.80533 18.34 7.27466 18.112 7.872C17.884 8.46933 17.7664 9.152 17.7594 9.92C17.7664 11.1075 18.0372 12.0675 18.5716 12.8C19.113 13.5325 19.911 13.8987 20.9655 13.8987C21.685 13.8987 22.2656 13.7351 22.7075 13.408C23.1563 13.0738 23.4983 12.5973 23.7334 11.9787L25.9991 12.512C25.6214 13.6355 24.998 14.4995 24.1288 15.104C23.2595 15.7013 22.2052 16 20.9655 16Z" fill="black"/>
<path d="M30.0071 16C29.1522 16 28.4362 15.8435 27.8591 15.5307C27.282 15.2107 26.8438 14.7911 26.5446 14.272C26.2525 13.7458 26.1064 13.1698 26.1064 12.544C26.1064 11.9608 26.2097 11.4488 26.4163 11.008C26.623 10.5671 26.9293 10.1938 27.3354 9.888C27.7415 9.57511 28.2403 9.32266 28.8316 9.13066C29.3446 8.98133 29.9253 8.84978 30.5736 8.736C31.2219 8.62221 31.9024 8.51555 32.6148 8.416C33.3344 8.31644 34.0468 8.21688 34.7522 8.11733L33.94 8.56533C33.9543 7.66221 33.7619 6.99378 33.3629 6.56C32.9711 6.11911 32.2942 5.89866 31.3323 5.89866C30.7268 5.89866 30.1711 6.04088 29.6652 6.32533C29.1593 6.60266 28.8067 7.06488 28.6071 7.712L26.5232 7.072C26.8082 6.08355 27.3497 5.29778 28.1476 4.71466C28.9528 4.13155 30.0215 3.84 31.3537 3.84C32.3868 3.84 33.2845 4.01778 34.0468 4.37333C34.8163 4.72178 35.3792 5.27644 35.7354 6.03733C35.9207 6.41422 36.0346 6.81244 36.0774 7.232C36.1201 7.65155 36.1415 8.10311 36.1415 8.58666V15.68H34.1644V13.0453L34.5491 13.3867C34.0718 14.2685 33.4627 14.9262 32.7216 15.36C31.9879 15.7867 31.083 16 30.0071 16ZM30.4026 14.176C31.0367 14.176 31.5818 14.0658 32.0377 13.8453C32.4937 13.6178 32.8606 13.3298 33.1384 12.9813C33.4163 12.6328 33.598 12.2702 33.6835 11.8933C33.8047 11.552 33.8723 11.168 33.8865 10.7413C33.9079 10.3147 33.9186 9.97333 33.9186 9.71733L34.6453 9.984C33.94 10.0907 33.2987 10.1867 32.7216 10.272C32.1446 10.3573 31.6209 10.4427 31.1507 10.528C30.6876 10.6062 30.2743 10.7022 29.911 10.816C29.6047 10.9227 29.3303 11.0507 29.0881 11.2C28.8529 11.3493 28.6642 11.5307 28.5217 11.744C28.3864 11.9573 28.3186 12.2168 28.3186 12.5227C28.3186 12.8213 28.3934 13.0987 28.543 13.3547C28.6926 13.6035 28.9207 13.8027 29.227 13.952C29.5334 14.1013 29.9253 14.176 30.4026 14.176Z" fill="black"/>
<path d="M42.0479 15.9893C40.6444 15.9893 39.5008 15.68 38.6173 15.0613C37.734 14.4427 37.1924 13.5715 36.9929 12.448L39.2799 12.096C39.4225 12.6933 39.7502 13.1662 40.2632 13.5147C40.7833 13.856 41.428 14.0267 42.1975 14.0267C42.8958 14.0267 43.4408 13.8845 43.8326 13.6C44.2317 13.3155 44.4311 12.9245 44.4311 12.4267C44.4311 12.1351 44.3599 11.9005 44.2174 11.7227C44.0821 11.5378 43.7935 11.3635 43.3517 11.2C42.91 11.0365 42.2367 10.8338 41.3319 10.592C40.3416 10.336 39.5543 10.0622 38.97 9.77066C38.3929 9.472 37.9798 9.12711 37.7303 8.736C37.4882 8.33778 37.367 7.85778 37.367 7.296C37.367 6.59911 37.5523 5.99111 37.9227 5.472C38.2932 4.95288 38.8133 4.55111 39.483 4.26666C40.1599 3.98222 40.9508 3.84 41.8555 3.84C42.739 3.84 43.5263 3.97866 44.2174 4.256C44.9085 4.53333 45.4677 4.928 45.8952 5.44C46.3227 5.94488 46.5792 6.53866 46.6647 7.22133L44.3777 7.63733C44.2993 7.08266 44.0393 6.64533 43.5975 6.32533C43.1558 6.00533 42.5822 5.83111 41.8769 5.80266C41.2001 5.77422 40.6515 5.888 40.2311 6.144C39.8108 6.39288 39.6006 6.73778 39.6006 7.17866C39.6006 7.43466 39.679 7.65155 39.8357 7.82933C39.9996 8.00711 40.3131 8.17778 40.7761 8.34133C41.2393 8.50488 41.9233 8.70044 42.828 8.928C43.797 9.17688 44.5665 9.45422 45.1364 9.76C45.7065 10.0587 46.1126 10.4178 46.3548 10.8373C46.6042 11.2498 46.7288 11.7511 46.7288 12.3413C46.7288 13.4791 46.312 14.3715 45.4784 15.0187C44.652 15.6658 43.5085 15.9893 42.0479 15.9893Z" fill="black"/>
<path d="M50.8076 15.68V4.16H52.7954V6.95467L52.5175 6.592C52.66 6.22222 52.8453 5.88445 53.0733 5.57867C53.3012 5.26578 53.5649 5.00978 53.8641 4.81067C54.1562 4.59733 54.4804 4.43378 54.8366 4.32C55.2 4.19911 55.5705 4.128 55.9481 4.10667C56.3256 4.07822 56.689 4.096 57.0381 4.16V6.25067C56.6606 6.15111 56.2401 6.12267 55.7771 6.16533C55.3211 6.208 54.9007 6.35378 54.516 6.60267C54.1527 6.83733 53.8641 7.12178 53.6504 7.456C53.4438 7.79022 53.2942 8.16355 53.2015 8.576C53.1089 8.98133 53.0626 9.41155 53.0626 9.86667V15.68H50.8076Z" fill="black"/>
<path d="M62.5944 16C61.4402 16 60.4392 15.7405 59.5914 15.2213C58.7435 14.7022 58.088 13.9875 57.625 13.0773C57.1689 12.16 56.941 11.104 56.941 9.90933C56.941 8.70755 57.1761 7.65155 57.6463 6.74133C58.1166 5.824 58.7755 5.11288 59.6234 4.608C60.4712 4.096 61.4616 3.84 62.5944 3.84C63.7486 3.84 64.7496 4.09955 65.5975 4.61866C66.4453 5.13778 67.1007 5.85244 67.5639 6.76266C68.027 7.67288 68.2585 8.72178 68.2585 9.90933C68.2585 11.1111 68.0234 12.1707 67.5532 13.088C67.09 13.9982 66.4346 14.7129 65.5868 15.232C64.7389 15.744 63.7415 16 62.5944 16ZM62.5944 13.8987C63.6987 13.8987 64.5216 13.5288 65.0631 12.7893C65.6117 12.0427 65.886 11.0827 65.886 9.90933C65.886 8.70755 65.6082 7.74755 65.0524 7.02933C64.5038 6.304 63.6845 5.94133 62.5944 5.94133C61.8463 5.94133 61.23 6.112 60.7456 6.45333C60.261 6.78755 59.9013 7.25333 59.6662 7.85066C59.4311 8.44088 59.3135 9.12711 59.3135 9.90933C59.3135 11.1182 59.5914 12.0853 60.1471 12.8107C60.7028 13.536 61.5186 13.8987 62.5944 13.8987Z" fill="black"/>
<path d="M73.5296 15.9893C72.1259 15.9893 70.9824 15.68 70.099 15.0613C69.2155 14.4427 68.674 13.5715 68.4746 12.448L70.7616 12.096C70.9041 12.6933 71.2319 13.1662 71.7448 13.5147C72.2649 13.856 72.9097 14.0267 73.6792 14.0267C74.3774 14.0267 74.9224 13.8845 75.3143 13.6C75.7133 13.3155 75.9128 12.9245 75.9128 12.4267C75.9128 12.1351 75.8415 11.9005 75.699 11.7227C75.5636 11.5378 75.2751 11.3635 74.8334 11.2C74.3916 11.0365 73.7183 10.8338 72.8135 10.592C71.8232 10.336 71.0359 10.0622 70.4517 9.77066C69.8746 9.472 69.4613 9.12711 69.212 8.736C68.9697 8.33778 68.8487 7.85778 68.8487 7.296C68.8487 6.59911 69.0339 5.99111 69.4044 5.472C69.7748 4.95288 70.2949 4.55111 70.9647 4.26666C71.6415 3.98222 72.4323 3.84 73.3372 3.84C74.2206 3.84 75.0079 3.97866 75.699 4.256C76.3901 4.53333 76.9494 4.928 77.3769 5.44C77.8044 5.94488 78.0609 6.53866 78.1464 7.22133L75.8593 7.63733C75.7809 7.08266 75.5209 6.64533 75.0792 6.32533C74.6374 6.00533 74.0639 5.83111 73.3586 5.80266C72.6817 5.77422 72.1331 5.888 71.7128 6.144C71.2923 6.39288 71.0822 6.73778 71.0822 7.17866C71.0822 7.43466 71.1606 7.65155 71.3174 7.82933C71.4812 8.00711 71.7946 8.17778 72.2578 8.34133C72.7209 8.50488 73.4049 8.70044 74.3097 8.928C75.2786 9.17688 76.0481 9.45422 76.6181 9.76C77.1881 10.0587 77.5942 10.4178 77.8364 10.8373C78.0858 11.2498 78.2105 11.7511 78.2105 12.3413C78.2105 13.4791 77.7937 14.3715 76.9601 15.0187C76.1336 15.6658 74.9901 15.9893 73.5296 15.9893Z" fill="black"/>
<path d="M84.4118 16C83.2648 16 82.2565 15.7511 81.3874 15.2533C80.5252 14.7485 79.852 14.048 79.3675 13.152C78.8901 12.2488 78.6515 11.2035 78.6515 10.016C78.6515 8.75733 78.8866 7.66578 79.3568 6.74133C79.8342 5.81688 80.4968 5.10222 81.3446 4.59733C82.1924 4.09244 83.1793 3.84 84.3049 3.84C85.4805 3.84 86.4815 4.11378 87.308 4.66133C88.1344 5.20178 88.7507 5.97333 89.1568 6.976C89.5701 7.97866 89.7339 9.16978 89.6484 10.5493H87.4149V9.73866C87.4006 8.40178 87.1441 7.41333 86.6454 6.77333C86.1538 6.13333 85.4022 5.81333 84.3904 5.81333C83.2718 5.81333 82.4312 6.16533 81.8683 6.86933C81.3054 7.57333 81.024 8.59022 81.024 9.92C81.024 11.1858 81.3054 12.1671 81.8683 12.864C82.4312 13.5538 83.2434 13.8987 84.3049 13.8987C85.0031 13.8987 85.6052 13.7422 86.111 13.4293C86.624 13.1093 87.023 12.6542 87.308 12.064L89.4988 12.7573C89.05 13.7885 88.3695 14.5885 87.4576 15.1573C86.5457 15.7191 85.5304 16 84.4118 16ZM80.2973 10.5493V8.81066H88.537V10.5493H80.2973Z" fill="black"/>
<path d="M98.5513 15.68V10.016C98.5513 9.568 98.5122 9.10933 98.4338 8.64C98.3626 8.16355 98.22 7.72266 98.0063 7.31733C97.7997 6.912 97.504 6.58488 97.1193 6.336C96.7417 6.08711 96.2466 5.96266 95.6338 5.96266C95.2348 5.96266 94.8573 6.03021 94.501 6.16533C94.1448 6.29333 93.8313 6.50311 93.5605 6.79466C93.2969 7.08621 93.0867 7.47021 92.93 7.94666C92.7803 8.42311 92.7055 9.00266 92.7055 9.68533L91.3162 9.16266C91.3162 8.11733 91.5122 7.19644 91.904 6.4C92.2959 5.59644 92.8588 4.97066 93.5925 4.52266C94.3264 4.07466 95.2135 3.85066 96.2536 3.85066C97.0516 3.85066 97.7214 3.97866 98.2628 4.23466C98.8043 4.49066 99.2425 4.82844 99.5773 5.248C99.9193 5.66044 100.179 6.112 100.357 6.60266C100.536 7.09333 100.657 7.57333 100.721 8.04266C100.785 8.512 100.817 8.92444 100.817 9.28V15.68H98.5513ZM90.4399 15.68V4.16H92.4384V7.488H92.7055V15.68H90.4399Z" fill="black"/>
<path d="M106.757 16C105.681 16 104.751 15.7333 103.968 15.2C103.191 14.6667 102.589 13.9413 102.161 13.024C101.741 12.0995 101.531 11.0613 101.531 9.90934C101.531 8.75023 101.745 7.71556 102.172 6.80534C102.6 5.88801 103.205 5.16623 103.989 4.64001C104.78 4.10667 105.717 3.84001 106.8 3.84001C107.89 3.84001 108.806 4.10667 109.546 4.64001C110.294 5.16623 110.858 5.88801 111.235 6.80534C111.62 7.72267 111.812 8.75734 111.812 9.90934C111.812 11.0613 111.62 12.096 111.235 13.0133C110.85 13.9307 110.284 14.6595 109.536 15.2C108.787 15.7333 107.861 16 106.757 16ZM107.067 13.984C107.801 13.984 108.4 13.8098 108.862 13.4613C109.325 13.1129 109.664 12.6329 109.878 12.0213C110.091 11.4098 110.198 10.7058 110.198 9.90934C110.198 9.11289 110.088 8.40889 109.867 7.79734C109.653 7.18579 109.319 6.70934 108.862 6.36801C108.413 6.02667 107.84 5.85601 107.142 5.85601C106.401 5.85601 105.791 6.03734 105.314 6.40001C104.837 6.76267 104.481 7.24979 104.245 7.86134C104.017 8.47289 103.903 9.15556 103.903 9.90934C103.903 10.6702 104.017 11.36 104.245 11.9787C104.481 12.5902 104.83 13.0773 105.293 13.44C105.763 13.8027 106.354 13.984 107.067 13.984ZM110.198 15.68V7.39201H109.942V0.320007H112.186V15.68H110.198Z" fill="black"/>
<path d="M117.153 16C116.298 16 115.582 15.8435 115.005 15.5307C114.428 15.2107 113.99 14.7911 113.691 14.272C113.399 13.7458 113.253 13.1698 113.253 12.544C113.253 11.9608 113.356 11.4488 113.562 11.008C113.769 10.5671 114.075 10.1938 114.482 9.888C114.888 9.57511 115.387 9.32266 115.978 9.13066C116.491 8.98133 117.071 8.84978 117.72 8.736C118.368 8.62221 119.048 8.51555 119.761 8.416C120.48 8.31644 121.193 8.21688 121.898 8.11733L121.086 8.56533C121.1 7.66221 120.908 6.99378 120.509 6.56C120.117 6.11911 119.44 5.89866 118.478 5.89866C117.873 5.89866 117.317 6.04088 116.811 6.32533C116.306 6.60266 115.953 7.06488 115.753 7.712L113.669 7.072C113.955 6.08355 114.495 5.29778 115.294 4.71466C116.098 4.13155 117.167 3.84 118.5 3.84C119.533 3.84 120.431 4.01778 121.193 4.37333C121.962 4.72178 122.526 5.27644 122.882 6.03733C123.066 6.41422 123.181 6.81244 123.223 7.232C123.266 7.65155 123.288 8.10311 123.288 8.58666V15.68H121.311V13.0453L121.695 13.3867C121.218 14.2685 120.608 14.9262 119.868 15.36C119.134 15.7867 118.229 16 117.153 16ZM117.549 14.176C118.182 14.176 118.727 14.0658 119.184 13.8453C119.64 13.6178 120.007 13.3298 120.285 12.9813C120.562 12.6328 120.744 12.2702 120.83 11.8933C120.95 11.552 121.019 11.168 121.033 10.7413C121.054 10.3147 121.065 9.97333 121.065 9.71733L121.791 9.984C121.086 10.0907 120.445 10.1867 119.868 10.272C119.291 10.3573 118.767 10.4427 118.297 10.528C117.834 10.6062 117.42 10.7022 117.057 10.816C116.75 10.9227 116.477 11.0507 116.234 11.2C115.999 11.3493 115.81 11.5307 115.668 11.744C115.532 11.9573 115.465 12.2168 115.465 12.5227C115.465 12.8213 115.54 13.0987 115.689 13.3547C115.839 13.6035 116.066 13.8027 116.373 13.952C116.68 14.1013 117.071 14.176 117.549 14.176Z" fill="black"/>
<path d="M132.881 15.68V10.016C132.881 9.56801 132.842 9.10934 132.764 8.64001C132.692 8.16356 132.55 7.72267 132.336 7.31734C132.129 6.91201 131.834 6.58489 131.449 6.33601C131.071 6.08712 130.576 5.96267 129.964 5.96267C129.564 5.96267 129.187 6.03023 128.831 6.16534C128.474 6.29334 128.161 6.50312 127.891 6.79467C127.627 7.08623 127.416 7.47023 127.26 7.94667C127.11 8.42312 127.036 9.00267 127.036 9.68534L125.646 9.16267C125.646 8.11734 125.842 7.19645 126.234 6.40001C126.625 5.59645 127.188 4.97067 127.923 4.52267C128.656 4.07467 129.543 3.85067 130.584 3.85067C131.381 3.85067 132.051 3.97867 132.593 4.23467C133.134 4.49067 133.572 4.82845 133.907 5.24801C134.249 5.66045 134.509 6.11201 134.687 6.60267C134.865 7.09334 134.987 7.57334 135.051 8.04267C135.115 8.51201 135.147 8.92445 135.147 9.28001V15.68H132.881ZM124.77 15.68V0.320007H126.768V8.60801H127.036V15.68H124.77Z" fill="black"/>
<path d="M136.861 15.68V0H139.095V15.68H136.861Z" fill="black"/>
</g>
<defs>
<clipPath id="clip0_10_2115">
<rect width="140" height="16" fill="white"/>
</clipPath>
</defs>
</svg>
