<svg width="115" height="13" viewBox="0 0 115 13" fill="none" xmlns="http://www.w3.org/2000/svg">
<g clip-path="url(#clip0_2483_6407)">
<path d="M0 12.74V0H1.83473V12.74H0Z" fill="black"/>
<path d="M6.99066 12.9912C6.33519 12.9912 5.78507 12.8872 5.34028 12.6792C4.89549 12.4712 4.53265 12.1997 4.25173 11.8645C3.97667 11.5237 3.76598 11.1539 3.61967 10.7552C3.47336 10.3565 3.37387 9.96655 3.3212 9.58522C3.26852 9.20388 3.24219 8.86874 3.24219 8.57988V3.37988H5.10326V7.98188C5.10326 8.34588 5.13252 8.72141 5.19104 9.10855C5.25542 9.48988 5.37247 9.84522 5.54219 10.1745C5.71776 10.5039 5.96064 10.7697 6.27081 10.9719C6.58684 11.1741 6.99652 11.2752 7.49982 11.2752C7.82755 11.2752 8.13774 11.2232 8.43035 11.1192C8.72297 11.0094 8.97755 10.8361 9.19412 10.5992C9.41648 10.3624 9.58916 10.0504 9.71206 9.66322C9.84075 9.27608 9.90519 8.80522 9.90519 8.25055L11.0464 8.67522C11.0464 9.52455 10.8854 10.2757 10.5636 10.9285C10.2417 11.5757 9.7793 12.0812 9.17656 12.4452C8.57374 12.8092 7.84511 12.9912 6.99066 12.9912ZM10.1247 12.7399V10.0359H9.90519V3.37988H11.7575V12.7399H10.1247Z" fill="black"/>
<path d="M17.2221 13.0001C16.2506 13.0001 15.4254 12.7863 14.7465 12.3588C14.0676 11.9313 13.5467 11.3448 13.1839 10.5995C12.8269 9.85412 12.6454 9.00764 12.6396 8.06012C12.6454 7.09523 12.8328 6.243 13.2015 5.50345C13.5702 4.75812 14.0969 4.17456 14.7816 3.75278C15.4664 3.331 16.2886 3.12012 17.2484 3.12012C18.2843 3.12012 19.168 3.37434 19.8996 3.88278C20.637 4.39123 21.1227 5.08745 21.3568 5.97145L19.5309 6.49145C19.3494 5.96567 19.0509 5.55834 18.6354 5.26945C18.2258 4.97478 17.7546 4.82745 17.2221 4.82745C16.6193 4.82745 16.1248 4.969 15.7385 5.25212C15.3522 5.52945 15.0654 5.91078 14.8782 6.39612C14.6909 6.88145 14.5943 7.43612 14.5885 8.06012C14.5943 9.02498 14.8167 9.80498 15.2557 10.4001C15.7004 10.9953 16.3559 11.2928 17.2221 11.2928C17.8132 11.2928 18.2901 11.1599 18.653 10.8941C19.0217 10.6226 19.3026 10.2355 19.4958 9.73278L21.3568 10.1661C21.0466 11.079 20.5345 11.781 19.8206 12.2721C19.1065 12.7575 18.2404 13.0001 17.2221 13.0001Z" fill="black"/>
<path d="M24.6485 13.0001C23.9462 13.0001 23.3581 12.873 22.884 12.6188C22.41 12.3588 22.0501 12.0179 21.8043 11.5961C21.5643 11.1686 21.4443 10.7006 21.4443 10.1921C21.4443 9.71831 21.5292 9.30231 21.6989 8.94412C21.8687 8.5859 22.1203 8.28257 22.4539 8.03412C22.7875 7.7799 23.1972 7.57478 23.6829 7.41878C24.1043 7.29745 24.5813 7.19056 25.1138 7.09812C25.6464 7.00567 26.2053 6.919 26.7905 6.83812C27.3817 6.75723 27.9669 6.67634 28.5462 6.59545L27.8791 6.95945C27.8908 6.22567 27.7328 5.68256 27.405 5.33012C27.0832 4.9719 26.5272 4.79278 25.7371 4.79278C25.2397 4.79278 24.7832 4.90834 24.3676 5.13945C23.9521 5.36478 23.6624 5.74034 23.4985 6.26612L21.7867 5.74612C22.0208 4.943 22.4656 4.30456 23.1211 3.83078C23.7824 3.357 24.6603 3.12012 25.7546 3.12012C26.6033 3.12012 27.3407 3.26456 27.9669 3.55345C28.5989 3.83656 29.0613 4.28723 29.3539 4.90545C29.5061 5.21167 29.5997 5.53523 29.6348 5.87612C29.6699 6.217 29.6875 6.5839 29.6875 6.97678V12.7401H28.0634V10.5995L28.3794 10.8768C27.9874 11.5933 27.487 12.1276 26.8783 12.4801C26.2756 12.8268 25.5323 13.0001 24.6485 13.0001ZM24.9733 11.5181C25.4943 11.5181 25.942 11.4286 26.3165 11.2495C26.6911 11.0646 26.9924 10.8306 27.2207 10.5475C27.4489 10.2643 27.5982 9.96964 27.6684 9.66345C27.7679 9.38612 27.8235 9.07412 27.8352 8.72745C27.8527 8.38078 27.8615 8.10345 27.8615 7.89545L28.4585 8.11212C27.8791 8.19878 27.3523 8.27678 26.8783 8.34612C26.4043 8.41545 25.9741 8.48478 25.5878 8.55412C25.2075 8.61767 24.868 8.69564 24.5695 8.78812C24.3179 8.87478 24.0926 8.97878 23.8936 9.10012C23.7004 9.22145 23.5454 9.36878 23.4283 9.54212C23.3172 9.71545 23.2615 9.92631 23.2615 10.1748C23.2615 10.4175 23.323 10.6428 23.4459 10.8508C23.5688 11.053 23.7561 11.2148 24.0077 11.3361C24.2594 11.4575 24.5813 11.5181 24.9733 11.5181Z" fill="black"/>
<path d="M34.539 12.9915C33.3861 12.9915 32.4468 12.7401 31.7211 12.2375C30.9954 11.7348 30.5506 11.027 30.3867 10.1141L32.2653 9.82812C32.3825 10.3135 32.6516 10.6976 33.073 10.9808C33.5002 11.2581 34.0298 11.3968 34.6619 11.3968C35.2355 11.3968 35.6832 11.2813 36.005 11.0501C36.3328 10.819 36.4966 10.5013 36.4966 10.0968C36.4966 9.85992 36.4382 9.66926 36.3211 9.52478C36.2099 9.37459 35.9729 9.23298 35.61 9.10012C35.2472 8.96726 34.6941 8.80259 33.9508 8.60612C33.1374 8.39812 32.4907 8.17567 32.0108 7.93878C31.5367 7.69612 31.1973 7.4159 30.9924 7.09812C30.7935 6.77456 30.694 6.38456 30.694 5.92812C30.694 5.3619 30.8462 4.8679 31.1505 4.44612C31.4548 4.02434 31.8821 3.6979 32.4321 3.46678C32.9882 3.23567 33.6378 3.12012 34.381 3.12012C35.1067 3.12012 35.7534 3.23278 36.3211 3.45812C36.8888 3.68345 37.3482 4.00412 37.6993 4.42012C38.0505 4.83034 38.2611 5.31278 38.3314 5.86745L36.4527 6.20545C36.3884 5.75478 36.1748 5.39945 35.8119 5.13945C35.4491 4.87945 34.9779 4.7379 34.3986 4.71478C33.8426 4.69167 33.392 4.78412 33.0466 4.99212C32.7014 5.19434 32.5287 5.47456 32.5287 5.83278C32.5287 6.04078 32.5931 6.217 32.7218 6.36145C32.8565 6.5059 33.114 6.64456 33.4944 6.77745C33.8748 6.91034 34.4366 7.06923 35.1798 7.25412C35.9758 7.45634 36.6079 7.68167 37.076 7.93012C37.5443 8.17278 37.8779 8.46456 38.0768 8.80545C38.2817 9.14059 38.384 9.54792 38.384 10.0275C38.384 10.9519 38.0417 11.677 37.3569 12.2028C36.6781 12.7286 35.7388 12.9915 34.539 12.9915Z" fill="black"/>
<path d="M41.7344 12.7399V3.37993H43.3672V5.6506L43.139 5.35593C43.256 5.05548 43.4082 4.78104 43.5954 4.5326C43.7827 4.27838 43.9993 4.07038 44.2451 3.9086C44.485 3.73526 44.7513 3.60238 45.0439 3.50993C45.3424 3.41171 45.6467 3.35393 45.9569 3.3366C46.267 3.31348 46.5655 3.32793 46.8523 3.37993V5.0786C46.5422 4.99771 46.1968 4.9746 45.8164 5.00926C45.4418 5.04393 45.0966 5.16238 44.7806 5.3646C44.4821 5.55526 44.2451 5.78638 44.0695 6.05793C43.8998 6.32948 43.7769 6.63281 43.7008 6.96793C43.6247 7.29726 43.5867 7.64681 43.5867 8.0166V12.7399H41.7344Z" fill="black"/>
<path d="M51.4173 13.0001C50.4692 13.0001 49.6469 12.7893 48.9505 12.3675C48.254 11.9456 47.7157 11.365 47.3353 10.6255C46.9607 9.88012 46.7734 9.02212 46.7734 8.05145C46.7734 7.075 46.9666 6.217 47.3528 5.47745C47.7391 4.73212 48.2804 4.15434 48.9769 3.74412C49.6733 3.32812 50.4868 3.12012 51.4173 3.12012C52.3654 3.12012 53.1876 3.331 53.8841 3.75278C54.5805 4.17456 55.1189 4.75523 55.4994 5.49478C55.8798 6.23434 56.07 7.08656 56.07 8.05145C56.07 9.02792 55.8769 9.88878 55.4906 10.6341C55.1101 11.3736 54.5718 11.9543 53.8753 12.3761C53.1788 12.7921 52.3595 13.0001 51.4173 13.0001ZM51.4173 11.2928C52.3244 11.2928 53.0004 10.9923 53.4452 10.3915C53.8958 9.78478 54.1211 9.00478 54.1211 8.05145C54.1211 7.075 53.8929 6.295 53.4364 5.71145C52.9857 5.12212 52.3128 4.82745 51.4173 4.82745C50.8028 4.82745 50.2966 4.96612 49.8986 5.24345C49.5006 5.515 49.2051 5.89345 49.012 6.37878C48.8189 6.85834 48.7223 7.4159 48.7223 8.05145C48.7223 9.03364 48.9505 9.81945 49.407 10.4088C49.8635 10.9981 50.5336 11.2928 51.4173 11.2928Z" fill="black"/>
<path d="M60.3994 12.9915C59.2464 12.9915 58.3071 12.7401 57.5814 12.2375C56.8557 11.7348 56.4109 11.027 56.2471 10.1141L58.1257 9.82812C58.2427 10.3135 58.512 10.6976 58.9333 10.9808C59.3605 11.2581 59.8902 11.3968 60.5223 11.3968C61.0958 11.3968 61.5435 11.2813 61.8654 11.0501C62.1931 10.819 62.357 10.5013 62.357 10.0968C62.357 9.85992 62.2984 9.66926 62.1814 9.52478C62.0702 9.37459 61.8332 9.23298 61.4704 9.10012C61.1074 8.96726 60.5544 8.80259 59.8112 8.60612C58.9977 8.39812 58.351 8.17567 57.8711 7.93878C57.3971 7.69612 57.0576 7.4159 56.8528 7.09812C56.6538 6.77456 56.5543 6.38456 56.5543 5.92812C56.5543 5.3619 56.7065 4.8679 57.0108 4.44612C57.3151 4.02434 57.7423 3.6979 58.2925 3.46678C58.8484 3.23567 59.4981 3.12012 60.2413 3.12012C60.967 3.12012 61.6137 3.23278 62.1814 3.45812C62.7491 3.68345 63.2085 4.00412 63.5597 4.42012C63.9108 4.83034 64.1215 5.31278 64.1917 5.86745L62.3131 6.20545C62.2487 5.75478 62.0351 5.39945 61.6723 5.13945C61.3094 4.87945 60.8383 4.7379 60.2589 4.71478C59.7029 4.69167 59.2523 4.78412 58.907 4.99212C58.5616 5.19434 58.3891 5.47456 58.3891 5.83278C58.3891 6.04078 58.4534 6.217 58.5822 6.36145C58.7168 6.5059 58.9742 6.64456 59.3547 6.77745C59.7351 6.91034 60.2969 7.06923 61.0402 7.25412C61.8361 7.45634 62.4681 7.68167 62.9364 7.93012C63.4046 8.17278 63.7381 8.46456 63.9371 8.80545C64.142 9.14059 64.2444 9.54792 64.2444 10.0275C64.2444 10.9519 63.902 11.677 63.2173 12.2028C62.5384 12.7286 61.599 12.9915 60.3994 12.9915Z" fill="black"/>
<path d="M69.3381 13.0001C68.3959 13.0001 67.5677 12.7979 66.8538 12.3935C66.1456 11.9833 65.5925 11.4141 65.1946 10.6861C64.8025 9.95231 64.6064 9.10298 64.6064 8.13812C64.6064 7.11545 64.7996 6.22857 65.1858 5.47745C65.578 4.72634 66.1223 4.14567 66.8187 3.73545C67.5151 3.32523 68.3257 3.12012 69.2503 3.12012C70.216 3.12012 71.0383 3.34256 71.7171 3.78745C72.396 4.22656 72.9022 4.85345 73.2358 5.66812C73.5753 6.48278 73.7099 7.45057 73.6397 8.57145H71.8049V7.91278C71.7932 6.82656 71.5826 6.02345 71.1729 5.50345C70.769 4.98345 70.1516 4.72345 69.3206 4.72345C68.4017 4.72345 67.7112 5.00945 67.2488 5.58145C66.7864 6.15345 66.5553 6.97967 66.5553 8.06012C66.5553 9.08859 66.7864 9.88593 67.2488 10.4521C67.7112 11.0126 68.3784 11.2928 69.2503 11.2928C69.8238 11.2928 70.3184 11.1656 70.7339 10.9115C71.1553 10.6515 71.483 10.2816 71.7171 9.80212L73.5168 10.3655C73.148 11.2033 72.5891 11.8533 71.84 12.3155C71.091 12.7719 70.257 13.0001 69.3381 13.0001ZM65.9584 8.57145V7.15878H72.7267V8.57145H65.9584Z" fill="black"/>
<path d="M80.953 12.74V8.138C80.953 7.774 80.9209 7.40133 80.8565 7.02C80.798 6.63288 80.6809 6.27466 80.5053 5.94533C80.3356 5.616 80.0927 5.35021 79.7767 5.148C79.4665 4.94578 79.0598 4.84466 78.5565 4.84466C78.2287 4.84466 77.9186 4.89955 77.6259 5.00933C77.3333 5.11333 77.0758 5.28378 76.8534 5.52066C76.6369 5.75755 76.4642 6.06955 76.3355 6.45666C76.2126 6.84378 76.1511 7.31466 76.1511 7.86933L75.0099 7.44466C75.0099 6.59533 75.1709 5.84711 75.4927 5.2C75.8146 4.54711 76.277 4.03866 76.8797 3.67466C77.4826 3.31066 78.2112 3.12866 79.0656 3.12866C79.7211 3.12866 80.2713 3.23266 80.716 3.44066C81.1608 3.64866 81.5207 3.92311 81.7958 4.264C82.0767 4.59911 82.2904 4.966 82.4366 5.36466C82.5829 5.76333 82.6824 6.15333 82.7351 6.53466C82.7878 6.916 82.8141 7.25111 82.8141 7.54V12.74H80.953ZM74.29 12.74V3.38H75.9316V6.084H76.1511V12.74H74.29Z" fill="black"/>
<path d="M87.6931 13C86.8094 13 86.0457 12.7833 85.4019 12.35C84.764 11.9167 84.2695 11.3273 83.9183 10.582C83.5731 9.83087 83.4004 8.98734 83.4004 8.05134C83.4004 7.10956 83.576 6.2689 83.9271 5.52934C84.2783 4.78401 84.7757 4.19756 85.4195 3.77001C86.0691 3.33668 86.8387 3.12001 87.7283 3.12001C88.6238 3.12001 89.3761 3.33668 89.9844 3.77001C90.599 4.19756 91.0616 4.78401 91.3715 5.52934C91.6875 6.27468 91.8455 7.11534 91.8455 8.05134C91.8455 8.98734 91.6875 9.82801 91.3715 10.5733C91.0554 11.3187 90.5902 11.9109 89.9757 12.35C89.3612 12.7833 88.6001 13 87.6931 13ZM87.9478 11.362C88.5509 11.362 89.0425 11.2205 89.4226 10.9373C89.8027 10.6542 90.081 10.2642 90.2566 9.76734C90.4322 9.27048 90.5199 8.69848 90.5199 8.05134C90.5199 7.40423 90.4295 6.83223 90.2478 6.33534C90.0722 5.83846 89.7975 5.45134 89.4226 5.17401C89.0539 4.89668 88.5825 4.75801 88.0093 4.75801C87.4005 4.75801 86.9002 4.90534 86.508 5.20001C86.1159 5.49468 85.8233 5.89046 85.6302 6.38734C85.4429 6.88423 85.3492 7.4389 85.3492 8.05134C85.3492 8.66954 85.4429 9.23001 85.6302 9.73268C85.8233 10.2295 86.1101 10.6253 86.4905 10.92C86.8767 11.2147 87.3624 11.362 87.9478 11.362ZM90.5199 12.74V6.00601H90.3093V0.26001H92.1528V12.74H90.5199Z" fill="black"/>
<path d="M96.2335 13.0001C95.5312 13.0001 94.943 12.873 94.469 12.6188C93.9949 12.3588 93.635 12.0179 93.3892 11.5961C93.1496 11.1686 93.0293 10.7006 93.0293 10.1921C93.0293 9.71831 93.1145 9.30231 93.2839 8.94412C93.4533 8.5859 93.7053 8.28257 94.0388 8.03412C94.3724 7.7799 94.7824 7.57478 95.2678 7.41878C95.6892 7.29745 96.1659 7.19056 96.6988 7.09812C97.2316 7.00567 97.7899 6.919 98.3755 6.83812C98.9663 6.75723 99.5518 6.67634 100.131 6.59545L99.464 6.95945C99.4754 6.22567 99.3174 5.68256 98.99 5.33012C98.6678 4.9719 98.1121 4.79278 97.322 4.79278C96.8243 4.79278 96.3678 4.90834 95.9526 5.13945C95.5374 5.36478 95.2477 5.74034 95.0835 6.26612L93.3717 5.74612C93.6061 4.943 94.0503 4.30456 94.706 3.83078C95.367 3.357 96.2449 3.12012 97.3396 3.12012C98.1885 3.12012 98.9259 3.26456 99.5518 3.55345C100.184 3.83656 100.647 4.28723 100.939 4.90545C101.091 5.21167 101.185 5.53523 101.22 5.87612C101.255 6.217 101.272 6.5839 101.272 6.97678V12.7401H99.6484V10.5995L99.9644 10.8768C99.572 11.5933 99.0716 12.1276 98.4633 12.4801C97.8602 12.8268 97.1175 13.0001 96.2335 13.0001ZM96.5583 11.5181C97.0789 11.5181 97.5266 11.4286 97.9014 11.2495C98.2763 11.0646 98.5774 10.8306 98.8056 10.5475C99.0339 10.2643 99.1831 9.96964 99.2533 9.66345C99.3525 9.38612 99.4087 9.07412 99.4201 8.72745C99.4377 8.38078 99.4465 8.10345 99.4465 7.89545L100.043 8.11212C99.464 8.19878 98.9373 8.27678 98.4633 8.34612C97.9892 8.41545 97.5591 8.48478 97.1728 8.55412C96.7927 8.61767 96.453 8.69564 96.1545 8.78812C95.9025 8.87478 95.6778 8.97878 95.4785 9.10012C95.2854 9.22145 95.13 9.36878 95.0133 9.54212C94.9018 9.71545 94.8465 9.92631 94.8465 10.1748C94.8465 10.4175 94.9079 10.6428 95.0308 10.8508C95.1537 11.053 95.3407 11.2148 95.5927 11.3361C95.8446 11.4575 96.1659 11.5181 96.5583 11.5181Z" fill="black"/>
<path d="M109.152 12.74V8.13801C109.152 7.77401 109.12 7.40134 109.056 7.02001C108.997 6.6329 108.88 6.27468 108.705 5.94534C108.534 5.61601 108.292 5.35023 107.976 5.14801C107.665 4.94579 107.259 4.84468 106.756 4.84468C106.427 4.84468 106.117 4.89956 105.825 5.00934C105.532 5.11334 105.275 5.28379 105.053 5.52068C104.836 5.75756 104.663 6.06956 104.535 6.45668C104.412 6.84379 104.35 7.31468 104.35 7.86934L103.209 7.44468C103.209 6.59534 103.37 5.84712 103.692 5.20001C104.013 4.54712 104.476 4.03868 105.079 3.67468C105.681 3.31068 106.41 3.12868 107.265 3.12868C107.92 3.12868 108.47 3.23268 108.915 3.44068C109.359 3.64868 109.719 3.92312 109.995 4.26401C110.276 4.59912 110.489 4.96601 110.636 5.36468C110.782 5.76334 110.882 6.15334 110.934 6.53468C110.987 6.91601 111.013 7.25112 111.013 7.54001V12.74H109.152ZM102.489 12.74V0.26001H104.131V6.99401H104.35V12.74H102.489Z" fill="black"/>
<path d="M112.422 12.74V0H114.257V12.74H112.422Z" fill="black"/>
</g>
<defs>
<clipPath id="clip0_2483_6407">
<rect width="115" height="13" fill="white"/>
</clipPath>
</defs>
</svg>
