<svg xmlns="http://www.w3.org/2000/svg" version="1.1" xmlns:xlink="http://www.w3.org/1999/xlink" width="500" height="500"><svg xmlns="http://www.w3.org/2000/svg" version="1.1" xmlns:xlink="http://www.w3.org/1999/xlink" width="500" height="500"><svg width="500" height="500" viewBox="0 0 500 500" fill="none" xmlns="http://www.w3.org/2000/svg">
<rect width="500" height="500" rx="96" fill="#2F5BFF"></rect>
<path d="M191.193 398.438H148.438V101.562H191.193V398.438Z" fill="white"></path>
<path d="M367.645 179.321C374.873 178.783 381.836 179.117 388.519 180.328V219.91C381.292 218.025 373.243 217.485 364.38 218.292C355.651 219.1 347.605 221.866 340.24 226.578C333.286 231.021 327.76 236.409 323.669 242.737C319.718 249.062 316.852 256.126 315.079 263.931C313.305 271.606 312.424 279.759 312.424 288.376V398.438H269.257V180.328H307.312V215.271C308.928 212.46 310.684 209.756 312.622 207.184C316.985 201.26 322.031 196.412 327.759 192.642C333.349 188.603 339.557 185.504 346.375 183.35C353.328 181.062 360.42 179.726 367.645 179.321Z" fill="white"></path>
</svg></svg><style>@media (prefers-color-scheme: light) { :root { filter: none; } }
@media (prefers-color-scheme: dark) { :root { filter: none; } }
</style></svg>